<?xml version="1.0" encoding="UTF-8"?><svg id="Capa_1" xmlns="http://www.w3.org/2000/svg" viewBox="0 0 62.72 87.16"><defs><style>.cls-1,.cls-2{stroke-width:0px;}.cls-2{fill:#fff;}</style></defs><rect class="cls-2" width="62.72" height="87.16"/><path class="cls-1" d="M19.79,73.9V28.98h-7.65s0-1.85,0-1.85h41.04s.62,14.68.62,14.68h-1.63c0-.46-.42-2.12-1.27-4.99-.85-2.86-2.08-4.89-3.72-6.07-1.63-1.18-4.38-1.78-8.25-1.78h-10.55v21.07h1.99c2.13,0,3.81-.14,5.04-.43,1.23-.29,2.3-1.1,3.21-2.43.91-1.33,1.46-3.42,1.65-6.27h1.85s0,20.6,0,20.6h-1.85c-.19-3.09-.68-5.34-1.47-6.73-.79-1.39-1.78-2.24-2.99-2.56-1.21-.32-3.02-.47-5.44-.47h-1.99v22.16h8.56s0,1.85,0,1.85H12.14s0-1.85,0-1.85h7.65Z"/><path class="cls-1" d="M28.62,15.14c0,2.56-2.08,4.64-4.64,4.64s-4.64-2.08-4.64-4.64c0-2.56,2.08-4.64,4.64-4.64,2.56,0,4.64,2.08,4.64,4.64"/></svg>